<!--
  - Copyright 2026 Gagik Sargsyan
  -
  - Licensed under the Apache License, Version 2.0 (the "License");
  - you may not use this file except in compliance with the License.
  - You may obtain a copy of the License at
  -
  -     https://www.apache.org/licenses/LICENSE-2.0
  -
  - Unless required by applicable law or agreed to in writing, software
  - distributed under the License is distributed on an "AS IS" BASIS,
  - WITHOUT WARRANTIES OR CONDITIONS OF ANY KIND, either express or implied.
  - See the License for the specific language governing permissions and
  - limitations under the License.
  -->

<svg width="512" height="512" viewBox="0 0 512 512" fill="none" xmlns="http://www.w3.org/2000/svg">
    <path d="M14 0H499V445.935L437.428 502.991L14 512V0Z" fill="#111827"/>
    <path d="M492.346 0C512 0 512 0.000417982 512 18.2861V454.857C512 457.714 512 460.343 510.157 462.286L456.109 509.714C453.653 511.428 452.306 512 449.354 512H20.6543C1.00045 512 1 512 1 493.714V18.2861C1 0.000417982 1.00048 0 20.6543 0H492.346ZM43.7129 21C25.8669 21 25.8672 21 25.8672 37.8926V477.107C25.8672 494 25.8668 494 43.7129 494H432.982C435.663 494 436.887 493.472 439.117 491.889L488.193 448.072C489.866 446.277 489.867 443.849 489.867 441.21L489.866 37.8926C489.866 21 489.866 21 472.021 21H43.7129Z" fill="#0EB53D"/>
    <path d="M345.079 69H408.602C411.361 69 413.599 71.2353 413.602 73.9946L413.995 436.995C413.998 439.758 411.758 442 408.995 442H345.002C342.24 442 340.001 439.76 340.002 436.998L340.079 232.624V74C340.079 71.2386 342.318 69 345.079 69Z" fill="#AFB1B3" stroke="black"/>
    <path d="M115.052 406.952L300.733 280.689C312.087 271.337 311.419 238.602 300.733 231.253L115.052 104.323C105.702 98.9782 87 102.987 87 115.012V163.78L223.255 255.303L87 347.495V393.591C87 406.952 105.702 412.296 115.052 406.952Z" fill="#0EB53D" stroke="black"/>
</svg>
