<svg xmlns="http://www.w3.org/2000/svg" viewBox="0 0 16 16" width="16" height="16">
  <path d="M9.4 1.5a1.5 1.5 0 0 0-2.8 0l-.2.7a4.5 4.5 0 0 1-1.2.5l-.6-.5a1.5 1.5 0 0 0-2.1 0l-.7.7a1.5 1.5 0 0 0 0 2.1l.5.6a4.5 4.5 0 0 1-.5 1.2l-.7.2a1.5 1.5 0 0 0 0 2.8l.7.2c.3.4.4.8.5 1.2l-.5.6a1.5 1.5 0 0 0 0 2.1l.7.7a1.5 1.5 0 0 0 2.1 0l.6-.5c.4.1.8.3 1.2.5l.2.7a1.5 1.5 0 0 0 2.8 0l.2-.7c.4-.2.8-.4 1.2-.5l.6.5a1.5 1.5 0 0 0 2.1 0l.7-.7a1.5 1.5 0 0 0 0-2.1l-.5-.6c.1-.4.3-.8.5-1.2l.7-.2a1.5 1.5 0 0 0 0-2.8l-.7-.2a4.5 4.5 0 0 1-.5-1.2l.5-.6a1.5 1.5 0 0 0 0-2.1l-.7-.7a1.5 1.5 0 0 0-2.1 0l-.6.5c-.4-.1-.8-.3-1.2-.5l-.2-.7zM8 10.5a2.5 2.5 0 1 1 0-5 2.5 2.5 0 0 1 0 5z" fill="#000000"/>
</svg>
