<svg width="16" height="16" viewBox="0 0 512 512" fill="none" xmlns="http://www.w3.org/2000/svg">
      <rect x="32" y="72" width="448" height="368" rx="30" stroke="#FFFFFF" stroke-width="28"/>
    <g transform="translate(256 256) scale(0.8) translate(-256 -256)">
        <path d="M335.679 122.573C335.679 129.116 338.017 132.854 342.692 132.854H396.456L396.924 260.438C396.924 264.644 392.248 272.122 388.508 275.86L294.07 367.926L228.15 304.368C225.813 302.031 222.073 301.564 218.332 304.368L197.294 322.127C194.957 323.996 194.957 328.67 197.294 331.474L274.434 407.183C289.395 420.736 301.083 419.801 314.173 407.183L425.91 296.423C432.455 289.413 439 272.589 439 257.634L438.533 102.945C438.533 96.8694 437.597 95.4673 431.52 95.4673L342.692 95C336.614 95 335.679 100.141 335.679 107.618V122.573Z"
              fill="#FFFFFF"/>

        <path d="M221.605 275.393L91.6357 363.72C85.0904 367.459 72 363.72 72 354.373V322.127L167.373 257.634L72 193.609V159.493C72 151.081 85.0904 148.277 91.6357 152.015L221.605 240.81C229.085 245.951 229.553 268.85 221.605 275.393Z"
              fill="#FFFFFF"/>
    </g>
</svg>