<svg width="512" height="512" viewBox="0 0 512 512" fill="none" xmlns="http://www.w3.org/2000/svg">
    <g clip-path="url(#clip0_17_106)">
        <path d="M492.308 0C512 3.46199e-10 512 0.000498024 512 18.2861V454.857C512 457.714 511.999 460.343 510.153 462.286L456 509.714C453.538 511.428 452.189 512 449.23 512H19.6924C7.54136e-05 512 -5.24657e-10 512 0 493.714V18.2861C0 0.000418459 0.000105931 0 19.6924 0H492.308ZM51.0771 32C34.0004 32 34 32 34 47.9639V463.036C34 479 34.0004 479 51.0771 479H423.567C426.133 479 427.303 478.501 429.438 477.005L476.399 435.597C478 433.9 478 431.606 478 429.111V47.9639C478 32 478 32 460.923 32H51.0771Z" fill="#AFB1B3"/>
        <path d="M378.981 99.5L329.036 99.1954L329.414 349.698L378.981 350L378.981 99.5Z" fill="#AFB1B3"/>
        <path d="M181.959 100.378L120.042 100L312.258 271.946L312.653 207.272L181.959 100.378Z" fill="#AFB1B3"/>
        <path d="M303.146 284.55L271.061 255.977L110 401.61L171.516 401.985L303.146 284.55Z" fill="#AFB1B3"/>
        <path d="M253.245 366.317L212 403L379.103 403L379.103 367.024L253.245 366.317Z" fill="#AFB1B3"/>
    </g>
    <defs>
        <clipPath id="clip0_17_106">
            <rect width="512" height="512" fill="white"/>
        </clipPath>
    </defs>
</svg>
