<!--
  - Copyright 2026 Gagik Sargsyan
  -
  - Licensed under the Apache License, Version 2.0 (the "License");
  - you may not use this file except in compliance with the License.
  - You may obtain a copy of the License at
  -
  -     https://www.apache.org/licenses/LICENSE-2.0
  -
  - Unless required by applicable law or agreed to in writing, software
  - distributed under the License is distributed on an "AS IS" BASIS,
  - WITHOUT WARRANTIES OR CONDITIONS OF ANY KIND, either express or implied.
  - See the License for the specific language governing permissions and
  - limitations under the License.
  -->

<svg width="512" height="512" viewBox="0 0 512 512" fill="none" xmlns="http://www.w3.org/2000/svg">
    <path d="M492.346 0C512 0 512 0.000417982 512 18.2861V454.857C512 457.714 512 460.343 510.157 462.286L456.109 509.714C453.653 511.428 452.306 512 449.354 512H20.6543C1.00045 512 1 512 1 493.714V18.2861C1 0.000417982 1.00048 0 20.6543 0H492.346ZM49.2695 30C32.0003 30 32 30.0003 32 46.1074V464.893C32 481 32.0003 481 49.2695 481H425.954C428.548 481 429.732 480.496 431.891 478.986L479.381 437.209C481 435.498 481 433.182 481 430.665V46.1074C481 30.0003 481 30 463.73 30H49.2695Z" fill="#AFB1B3"/>
    <path d="M350.079 69H413.602C416.361 69 418.599 71.2353 418.602 73.9946L418.995 436.995C418.998 439.758 416.758 442 413.995 442H350.002C347.24 442 345.001 439.76 345.002 436.998L345.079 232.624V74C345.079 71.2386 347.318 69 350.079 69Z" fill="#AFB1B3" stroke="black"/>
    <path d="M120.052 406.952L305.733 280.689C317.087 271.337 316.419 238.602 305.733 231.253L120.052 104.323C110.702 98.9782 92 102.987 92 115.012V163.78L228.255 255.303L92 347.495V393.591C92 406.952 110.702 412.296 120.052 406.952Z" fill="#AFB1B3" stroke="black"/>
</svg>
