<!--
  - Copyright 2026 Gagik Sargsyan
  -
  - Licensed under the Apache License, Version 2.0 (the "License");
  - you may not use this file except in compliance with the License.
  - You may obtain a copy of the License at
  -
  -     https://www.apache.org/licenses/LICENSE-2.0
  -
  - Unless required by applicable law or agreed to in writing, software
  - distributed under the License is distributed on an "AS IS" BASIS,
  - WITHOUT WARRANTIES OR CONDITIONS OF ANY KIND, either express or implied.
  - See the License for the specific language governing permissions and
  - limitations under the License.
  -->

<svg width="512" height="512" viewBox="0 0 512 512" fill="none" xmlns="http://www.w3.org/2000/svg">
    <g clip-path="url(#clip0_17_88)">
        <rect width="512" height="512"/>
        <path d="M18 14H494V449.813L442.345 497H18V14Z" fill="#1B348D"/>
        <path d="M295.147 252.273L74 50H164.916L358 211.131V280.604L164.916 461H74L295.147 252.273Z" fill="#F5F7FA"/>
        <path d="M295.147 252.273L342.287 295.284L358 280.604V211.131L164.916 50H74L295.147 252.273ZM358 280.604L164.916 461H74L295.147 252.273" stroke="#1B348D" stroke-width="6"/>
        <path d="M243 404L182 461H414V404H243Z" fill="#3ECD39" stroke="#1B348D" stroke-width="6"/>
        <path d="M492.308 0C512 3.46199e-10 512 0.000498024 512 18.2861V454.857C512 457.714 511.999 460.343 510.153 462.286L456 509.714C453.538 511.428 452.189 512 449.23 512H19.6924C7.54136e-05 512 -5.24657e-10 512 0 493.714V18.2861C0 0.000418459 0.000105931 0 19.6924 0H492.308ZM41.7734 21C23.8123 21 23.8125 21.0005 23.8125 37.7861V474.214C23.8125 490.999 23.8123 491 41.7734 491H433.56C436.258 491 437.489 490.475 439.734 488.901L489.128 445.364C490.812 443.581 490.812 441.168 490.812 438.545V37.7861C490.812 21.0004 490.812 21 472.851 21H41.7734Z" fill="#53D41C"/>
        <path d="M342.122 284.626V202.218V50H413.376L414 397H342L342.122 284.626Z" fill="#F5F7FA" stroke="#1B348D" stroke-width="6"/>
    </g>
    <defs>
        <clipPath id="clip0_17_88">
            <rect width="512" height="512" fill="white"/>
        </clipPath>
    </defs>
</svg>
